<svg xmlns="http://www.w3.org/2000/svg" viewBox="0 0 213 40"><defs><style>.cls-1,.cls-5{fill:#273844;fill-rule:evenodd}.cls-5{fill:#1ec4c6}</style></defs><g id="Layer_2" data-name="Layer 2"><g id="Layer_1-2" data-name="Layer 1"><path class="cls-1" d="M145.49 22.24l4.61-2.89a12.26 12.26 0 0 0-11-6.35 12.71 12.71 0 0 0-13 13 13 13 0 0 0 24.13 6.6l-4.7-2.85a7.5 7.5 0 1 1 0-7.5z"/><path fill="#273844" d="M113 14h6v25h-6z"/><path class="cls-1" d="M116 8a4 4 0 0 0 4-4 4 4 0 1 0-8 0 4 4 0 0 0 4 4zm-17 6h-6v25h6V27a5.84 5.84 0 0 1 2.72-5 7.38 7.38 0 0 1 5.28-1v-7c-3.39 0-6.8.8-8 4v-4zm-13 0h-6V7l-6 2v5h-4v6h4v10.61C74 37.45 76.8 40 86 39v-5.85c-3.85.2-6 0-6-2.65V20h6v-6zm-58.42-.7a8.43 8.43 0 0 0-7.43 3.6 7.38 7.38 0 0 0-6.78-3.6c-3.14 0-5.44 1.1-6.93 3.35V14H0v25h6V25c0-3.65 2.08-5.65 4.6-5.65C14 19.33 15 21 15 24v15h6V25c0-3.65 1.66-5.65 4.6-5.65C29 19.3 30 21 30 24v15h6V23.6c0-6.25-2.69-10.3-8.42-10.3zM66.37 28H47.2a7.54 7.54 0 0 0 7.48 5.5A8.38 8.38 0 0 0 61 30.78l4.38 3C63 37.23 59.34 39 54.59 39a13.34 13.34 0 0 1-9.86-3.69A12.58 12.58 0 0 1 41 26a12.7 12.7 0 0 1 3.67-9.26A12.54 12.54 0 0 1 54.09 13a11.7 11.7 0 0 1 9 3.74A12.9 12.9 0 0 1 66.62 26a10 10 0 0 1-.25 2zM47.5 23h13c-.76-3.1-3.31-4.6-6.32-4.6-3.52 0-5.91 1.69-6.68 4.6z"/><path fill="#0fb191" d="M206 14h6v25h-6z"/><path d="M209 8a4 4 0 0 0 4-4 4 4 0 1 0-8 0 4 4 0 0 0 4 4zm-16 9v-3h6v25h-6v-3c-2 2.45-5.2 3.65-8.74 3.65a11.51 11.51 0 0 1-8.68-3.8A13.33 13.33 0 0 1 172 26.5a13.21 13.21 0 0 1 3.58-9.35 11.56 11.56 0 0 1 8.68-3.85c3.53 0 6.77 1.2 8.74 3.65zm-12.94 14.82a7.33 7.33 0 0 0 12.54-5.32 7.4 7.4 0 0 0-12.54-5.27A7.11 7.11 0 0 0 178 26.5a7.32 7.32 0 0 0 2.06 5.32z" fill="#0fb191" fill-rule="evenodd"/><path class="cls-5" d="M164.83 38.83a4 4 0 1 0-5.66 0 4 4 0 0 0 5.66 0z"/><path d="M166 4a4 4 0 0 1-8 0 4 4 0 1 1 8 0z" fill="#f7ab59" fill-rule="evenodd"/><path class="cls-5" d="M162 24a4 4 0 0 0 4-4 4 4 0 1 0-8 0 4 4 0 0 0 4 4z"/></g></g></svg>